<svg version="1.0" viewBox="0 0 96 96" fill="currentColor" xmlns="http://www.w3.org/2000/svg">
    <path style="-inkscape-stroke:none" d="M16.265 3.162C8.112 3.2 3.328 8.389 3.335 15.506v24.96s-.045 4.784 4.493 6.992c-4.51 1.858-4.508 6.754-4.508 6.754l.015 26.134c-.013 7.602 4.896 12.44 13.906 12.345h22.998s6.204.34 7.195-4.995c1.413 5.113 7.947 4.995 7.947 4.995H77.73c10.16.31 13.977-3.62 13.612-14.62V53.63s-.02-3.609-4.118-5.564c4.252-2.41 4.118-6.502 4.118-6.502V16.506c-.053-9.005-3.557-13.39-13.906-13.344H54.258s-4.815-.266-6.714 4.964c-1.942-5.33-6.303-4.964-6.303-4.964z" fill="#fff" fill-opacity=".5"/>
    <path style="-inkscape-stroke:none" d="M16.12 6.872c-4.66.011-8.47 3.793-8.462 8.404V37.65c-.007 4.955 4.336 8.412 8.901 8.405h21.09c4.901.134 7.876-3.763 7.89-8.99v-21.79c-.017-5.046-3.936-8.412-8.462-8.404H26.566zM16.401 49.202c-4.66.012-8.468 3.794-8.462 8.404v22.376c-.006 4.954 4.337 8.412 8.902 8.404h21.09c4.901.134 7.875-3.762 7.89-8.989v-21.79c-.017-5.046-3.936-8.412-8.463-8.405h-10.51zM58.353 49.756c-4.66.011-8.468 3.793-8.462 8.404v22.375c-.006 4.955 4.337 8.412 8.902 8.404h21.09c4.901.135 7.875-3.762 7.89-8.988V58.16c-.017-5.046-3.936-8.412-8.463-8.404H68.8zM58.45 6.928c-4.66.011-8.47 3.793-8.463 8.404v22.375c-.006 4.955 4.337 8.412 8.902 8.404h21.09c4.901.135 7.875-3.762 7.89-8.988V15.332c-.017-5.046-3.936-8.412-8.463-8.404H68.895z" fill="#000"/>
</svg>
