<svg xmlns="http://www.w3.org/2000/svg" height="20" width="20" viewBox="0 0 40 40"><style>.st0{opacity:.3;fill:none;stroke:#fff;stroke-width:3;stroke-miterlimit:10;enable-background:new}.st1{fill:#111}.st2,.st3{opacity:.3;stroke:#fff;stroke-width:3;stroke-miterlimit:10;enable-background:new}.st2{stroke-linejoin:round;fill:none}.st3{fill:#111}</style><path class="st0" d="M20.5 20.7c.2-.2-.1-1.3-.2-1.6 0-.2 0-.3-.1-.4s-.6-.1-.7-.1c-1.9-.5-3.6-1.4-4.8-3.1-.9-1.3-1.3-2.8-1.3-4.3 0-.7.2-1.5.5-2.1.4-.9 1.2-1.5 2.1-2 1.1-.6 2.4-.9 3.7-.9.7 0 1.4 0 2.1.2 1 .3 1.8 1.1 2.3 2 .7 1.4 1.1 2.7 1.3 4.2.1.9.2 2-.1 2.8-.2.5-.5.9-.8 1.3-.3.3-.8.7-.8 1.1 0 .6.1 1.2.2 1.7 0 .3.1.6.1.8 0 .2 0 .2.2.2 1 .1 2.1 0 3.2 0 1.7-.1 3.5-.3 5.2-.3.2 0 .8-.1 1 0s.3.6.4.8c.1.2.2.5.3.7s0 .3-.1.5c-.2.3-.4.5-.6.8-.1.2-.2.4-.4.6s-.4.1-.6.2c-2.1.3-4.3.3-6.4.4h-1.8c.2 1.5.3 3 .4 4.6 0 .4 0 .8.1 1.2 0 .2 0 .4.1.6.1.4.9.5 1.3.5 1.2.1 2.4-.1 3.6.2 1 .2 2.3.1 3.1.7.5.4.8 1.1.6 1.7-.2.7-.7 1.2-1.4 1.3-.5.1-1 0-1.5 0-.7-.1-1.4-.2-2.1-.2-2.7-.2-5.4 0-8.2.1-1.4 0-2.7.2-4 .4-.7.1-1.3.2-2 .2-.5 0-1.2.1-1.7 0-.9-.2-1.9.1-2.4-.9-.3-.7-.2-1.8.6-2.2s1.8-.3 2.7-.4l3-.3c.9-.1 1.9-.2 2.8-.3.5-.1.9-.1 1.4-.2.2 0 .5 0 .6-.1s.1 0 .1-.2c0-.9-.1-1.8-.1-2.7 0-.7-.1-1.4-.1-2.2 0-.3-.1-.6-.1-.9 0-.2 0-.5-.1-.7-.1-.1-.4 0-.5 0h-6.5c-.7 0-1.4 0-2.1-.1-.7 0-1.5 0-2-.5-1.1-1-.3-2.9 1.1-3l9.4-.1zm-.3-11.1c-.5-.2-1.1 0-1.6.1s-.9.3-1.3.5c-.5.3-.6.8-.6 1.4 0 1.3 1 2.7 2.2 3 .6.2 1.2.2 1.8.3.2 0 .2.1.3 0 .3-.2.5-.5.7-.8.1-.1.3-.2.3-.4 0-.1-.1-.4-.1-.5-.1-.4-.1-.8-.2-1.2-.1-.5-.5-1.3-.8-1.8 0 0-.5-.5-.7-.6z"/><path class="st1" d="M20.5 20.7c.2-.2-.1-1.3-.2-1.6 0-.2 0-.3-.1-.4s-.6-.1-.7-.1c-1.9-.5-3.6-1.4-4.8-3.1-.9-1.3-1.3-2.8-1.3-4.3 0-.7.2-1.5.5-2.1.4-.9 1.2-1.5 2.1-2 1.1-.6 2.4-.9 3.7-.9.7 0 1.4 0 2.1.2 1 .3 1.8 1.1 2.3 2 .7 1.4 1.1 2.7 1.3 4.2.1.9.2 2-.1 2.8-.2.5-.5.9-.8 1.3-.3.3-.8.7-.8 1.1 0 .6.1 1.2.2 1.7 0 .3.1.6.1.8 0 .2 0 .2.2.2 1 .1 2.1 0 3.2 0 1.7-.1 3.5-.3 5.2-.3.2 0 .8-.1 1 0s.3.6.4.8c.1.2.2.5.3.7s0 .3-.1.5c-.2.3-.4.5-.6.8-.1.2-.2.4-.4.6s-.4.1-.6.2c-2.1.3-4.3.3-6.4.4h-1.8c.2 1.5.3 3 .4 4.6 0 .4 0 .8.1 1.2 0 .2 0 .4.1.6.1.4.9.5 1.3.5 1.2.1 2.4-.1 3.6.2 1 .2 2.3.1 3.1.7.5.4.8 1.1.6 1.7-.2.7-.7 1.2-1.4 1.3-.5.1-1 0-1.5 0-.7-.1-1.4-.2-2.1-.2-2.7-.2-5.4 0-8.2.1-1.4 0-2.7.2-4 .4-.7.1-1.3.2-2 .2-.5 0-1.2.1-1.7 0-.9-.2-1.9.1-2.4-.9-.3-.7-.2-1.8.6-2.2s1.8-.3 2.7-.4l3-.3c.9-.1 1.9-.2 2.8-.3.5-.1.9-.1 1.4-.2.2 0 .5 0 .6-.1s.1 0 .1-.2c0-.9-.1-1.8-.1-2.7 0-.7-.1-1.4-.1-2.2 0-.3-.1-.6-.1-.9 0-.2 0-.5-.1-.7-.1-.1-.4 0-.5 0h-6.5c-.7 0-1.4 0-2.1-.1-.7 0-1.5 0-2-.5-1.1-1-.3-2.9 1.1-3l9.4-.1zm-.3-11.1c-.5-.2-1.1 0-1.6.1s-.9.3-1.3.5c-.5.3-.6.8-.6 1.4 0 1.3 1 2.7 2.2 3 .6.2 1.2.2 1.8.3.2 0 .2.1.3 0 .3-.2.5-.5.7-.8.1-.1.3-.2.3-.4 0-.1-.1-.4-.1-.5-.1-.4-.1-.8-.2-1.2-.1-.5-.5-1.3-.8-1.8 0 0-.5-.5-.7-.6z"/><path class="st0" d="M6.3 30.1c-.6-.1-.9-.3-1.3-.8s-.4-.9-.2-1.4c.4-.9 1.5-1.2 2.4-1.5 1.9-.6 4-.6 6-.5 1 .1 2 .1 3 .1s1.9.8 1.7 2c-.1.3-.2.5-.4.7-.2.2-.3.3-.6.4-.3.1-.6.2-1 .2-.9.1-1.8.1-2.8.1-1.3 0-2.6 0-3.9.1-.5.1-1.1.2-1.6.4-.3.1-.9.3-1.3.2z"/><path class="st1" d="M6.3 30.1c-.6-.1-.9-.3-1.3-.8s-.4-.9-.2-1.4c.4-.9 1.5-1.2 2.4-1.5 1.9-.6 4-.6 6-.5 1 .1 2 .1 3 .1s1.9.8 1.7 2c-.1.3-.2.5-.4.7-.2.2-.3.3-.6.4-.3.1-.6.2-1 .2-.9.1-1.8.1-2.8.1-1.3 0-2.6 0-3.9.1-.5.1-1.1.2-1.6.4-.3.1-.9.3-1.3.2z"/><path class="st0" d="M26.2 27.3c-.1-.2.6-.8.7-.9.2-.2.4-.4.6-.4.2-.1.5-.1.8-.1.5 0 1.1 0 1.6-.1 1.7-.1 3.5-.4 5.1.2.3.1.5.2.7.3.1.1.3.1.3.3 0 .1-.1.4-.1.6-.2.7-.3 1.4-1 1.8-.3.2-.7.2-1.1.2-.8.1-1.7.1-2.5.1-.9 0-1.7 0-2.6-.1h-1.2c-.1 0-.4.1-.5 0l-.8-1.9z"/><path class="st1" d="M26.2 27.3c-.1-.2.6-.8.7-.9.2-.2.4-.4.6-.4.2-.1.5-.1.8-.1.5 0 1.1 0 1.6-.1 1.7-.1 3.5-.4 5.1.2.3.1.5.2.7.3.1.1.3.1.3.3 0 .1-.1.4-.1.6-.2.7-.3 1.4-1 1.8-.3.2-.7.2-1.1.2-.8.1-1.7.1-2.5.1-.9 0-1.7 0-2.6-.1h-1.2c-.1 0-.4.1-.5 0l-.8-1.9z"/><path class="st2" d="M10.8 15.7c.3.3 1.9 1.9 1.9 2 0 .2-.2.3-.2.4-.2.3-.4.5-.6.8-.2.2-.6.9-1 .7-1.8-.7-3-2.4-4.4-3.8-.7-.7-1.4-1.4-2.2-2-.4-.3-.7-.7-1.1-1-.2-.2-.5-.5-.6-.8-.3-1.1.5-2.3 1.6-2.2.7.1 1.4.7 1.9 1.2 1.7 1.4 3.2 3 4.7 4.7"/><path class="st1" d="M10.8 15.7c.3.3 1.9 1.9 1.9 2 0 .2-.2.3-.2.4-.2.3-.4.5-.6.8-.2.2-.6.9-1 .7-1.8-.7-3-2.4-4.4-3.8-.7-.7-1.4-1.4-2.2-2-.4-.3-.7-.7-1.1-1-.2-.2-.5-.5-.6-.8-.3-1.1.5-2.3 1.6-2.2.7.1 1.4.7 1.9 1.2 1.7 1.4 3.2 3 4.7 4.7"/><g id="XMLID_1_"><path class="st3" d="M28.2 17.2c-.3-.3-.3-.7-.3-1.2.1-.7.4-1.3.8-1.8 1.1-1.6 2.3-3.2 3.5-4.7.2-.3.6-.9 1-1.1.5-.2 1.1-.1 1.5.3.2.2.4.4.5.6.1.2.3.4.4.6.1.3-.4.9-.5 1.1-.5.8-1.1 1.6-1.7 2.4-.7 1-1.4 1.9-2.1 2.9-.3.4-.6.9-1 1.2-.1.1-.9.1-1.7 0l-.4-.3z"/><path class="st1" d="M28.2 17.2c-.3-.3-.3-.7-.3-1.2.1-.7.4-1.3.8-1.8 1.1-1.6 2.3-3.2 3.5-4.7.2-.3.6-.9 1-1.1.5-.2 1.1-.1 1.5.3.2.2.4.4.5.6.1.2.3.4.4.6.1.3-.4.9-.5 1.1-.5.8-1.1 1.6-1.7 2.4-.7 1-1.4 1.9-2.1 2.9-.3.4-.6.9-1 1.2-.1.1-.9.1-1.7 0l-.4-.3z"/></g></svg>
