<svg xmlns="http://www.w3.org/2000/svg" viewBox="0 0 24 24"><path fill="currentColor" fill-rule="evenodd" d="M15.649 4C16.514 3 17.096 1.605 16.937.217c-1.246.047-2.753.795-3.646 1.795-.801.888-1.502 2.307-1.313 3.668 1.389.103 2.807-.676 3.67-1.678m3.117 8.81c.035 3.588 3.284 4.782 3.32 4.797-.026.084-.52 1.7-1.712 3.373-1.032 1.443-2.102 2.88-3.79 2.912-1.655.03-2.19-.941-4.084-.941s-2.486.91-4.054.97c-1.628.059-2.868-1.562-3.908-3-2.126-2.944-3.75-8.32-1.57-11.946 1.085-1.8 3.02-2.942 5.124-2.97 1.598-.03 3.107 1.03 4.084 1.03s2.81-1.275 4.739-1.088c.807.032 3.072.312 4.526 2.352-.117.07-2.703 1.512-2.674 4.51"/></svg>