<svg xmlns="http://www.w3.org/2000/svg" width="604" height="618.667" fill="currentColor" version="1.0" viewBox="0 0 453 464">
    <path d="M175.9 65.5c-10.3 3.3-18.8 11.3-22 20.7l-1.8 5.3-4.5-.3c-15.5-1.2-31.1 8.2-38 22.8-2.5 5.4-3.2 8-3.4 15.1l-.4 8.6-4.9 3.8c-9 6.8-15.7 19.7-17.4 33.5-1.1 9.1 2.3 21.7 8.5 31.7 1.2 1.9 1.1 2.4-1.9 4.9C77.6 222 70 238.2 70 254c0 17.5 10.4 36.7 25 46 4.9 3.2 5 3.3 5 8.4.1 16.7 10.9 33.9 26.1 41.3 3.5 1.7 7.2 3.4 8.1 3.7s2.9 3 4.3 6c7.6 16 24.7 25.8 42.5 24.3 11.9-1 23.1-6.8 29.3-15.2 1.7-2.4 3.4-4.4 3.7-4.4.3-.1 1.5 1.5 2.7 3.4 3.2 4.9 11.3 11 18 13.5 21.2 8 45.9-1.8 54.4-21.4 2.1-4.9 2.9-5.7 6.8-7.1 17.6-6 32.1-26 32.1-44.1v-5.3l5.5-3.7c7.3-4.8 14.6-13.1 18.5-21 10.6-21.5 6.5-46-10.5-63.1-6.5-6.5-7-7.3-5.7-9 .8-1 2.8-4.7 4.5-8.2 2.4-5.2 3.1-8 3.5-15.5.8-16.8-3-26.9-14.5-38.5l-7.4-7.4-.2-8.1c-.3-10.8-4.1-19-12.7-26.9-7.6-7.1-14.7-9.9-25.4-10.2l-7.9-.2-1.5-4.4c-3-9-9.4-15.8-19-20.2-3.7-1.7-6.6-2.1-13.7-2.2-8.3 0-9.5.3-15.3 3.4-3.4 1.9-7.6 5-9.3 6.9l-3.1 3.5-2.9-3.6c-1.6-2-5.9-5-9.5-6.8-7.8-3.9-18-4.8-25.5-2.4m18.9 13c4.7 2 7.9 5 10.5 10 1.8 3.4 2.2 6.2 2.5 18.2l.4 14.3h-5c-4.1 0-5.2-.4-5.7-1.9-1-3.1-8-8.9-12.5-10.2-3.3-1-5.1-1-8.8 0-9.4 2.5-14.2 8.7-14.2 18.3 0 10.7 7.9 18.3 18.7 18.2 6.3-.1 10.7-2.6 14.8-8.1 2.8-3.9 3.4-4.2 7.8-4.2l4.7-.1v33h-37.6l-3.1-4.3c-3.4-4.8-8.6-7.7-15.1-8.5-4.2-.5-4.4-.7-8.8-8.2-2.4-4.3-5.2-8.4-6.1-9.2-.9-.7-5.2-1.5-10.2-1.8l-8.6-.5.2-5.2c.4-9.1 6-17.5 14.6-21.9 4.8-2.5 13.6-2.9 20-.9 6.2 1.9 9.4 1.1 10.1-2.8.2-1.2.9-4.9 1.5-8.2 2-10.7 9.8-17.5 20.4-17.5 3.2 0 7.4.7 9.5 1.5m56 0c4.7 2 7.9 5 10.3 9.7 3 5.8 2.5 8.9-1.9 11.9-3.8 2.6-10.2 11.1-10.2 13.4 0 .7.9 2.4 2.1 3.9 3.2 4 6.1 3.4 11.1-2.5 5.6-6.7 11.3-10 18.5-10.6 7.5-.7 12.9.8 18.6 5.2 9.1 7 12.6 20.3 7.9 30.7-1.8 4.2-8.5 11.8-10.3 11.8-.5 0-1.6 1.1-2.5 2.5-1.4 2.1-1.4 3-.4 5.5 2.7 6.5 9.5 4.6 18.1-4.8 4.9-5.3 5-5.4 7.4-3.8 3.7 2.4 9.1 11.3 11.1 18 2.8 10 .7 21.8-5.6 30.6-1.7 2.5-2.5 2.8-4 2-1-.6-3.5-1-5.4-1-2.7 0-4 .6-5.2 2.6-2.9 4.4-1 7.3 6.8 10.4 13.3 5.4 22 14.4 25.9 26.9 6.3 20.3-3.3 42.2-22.6 51.7-5.7 2.8-6.6 2.9-19.6 2.9-14.9 0-16.9.6-16.9 5.5 0 1.5.8 3.4 1.8 4.3 2.7 2.5 12.6 4 21.6 3.3l7.9-.6-.6 4.9c-1.1 9.2-7.2 18.6-15.5 24-7.4 4.7-16.6 6.7-24.9 5.3-8.4-1.4-11.3-.1-11.3 5.3 0 4.2 2.6 6.2 9.2 7.1 2.6.4 4.8 1 4.8 1.4 0 2.1-9 10.6-13.5 12.6-6.3 3-16.7 3.2-23.9.7-6.7-2.4-13.8-9-16.7-15.5l-2.4-5.3-.3-49.5c-.3-54-.2-53-6-53-5 0-6.2 2.4-6.2 12.2v8.8h-19.5l-3.7-6.5-3.7-6.6 1.9-3.2c3.8-6.2 1.9-18-3.6-22.8-3.4-3-8.2-4.9-12.3-4.9-3.9 0-4 0-9-8.9-2.8-4.9-5.8-9.2-6.7-9.5S140 204 128 204h-21.9l-2.5-3.3c-5.3-7-7.1-12.5-7.1-22.2 0-7.5.5-9.9 2.6-14.5 3-6.5 7.6-12 12.4-15 2.8-1.7 4.7-2 11.1-1.8l7.8.3 3.4 5.8 3.4 5.9-2.1 4.8c-2.6 6-2.6 10.2-.2 15.5 6.2 13.8 24.3 15.2 32.7 2.5l2.7-4H208v10.2c0 8 .3 10.5 1.7 12 2 2.2 6.1 2.3 8.5.1 1.7-1.5 1.8-4.5 1.8-52.5 0-33.4.4-52.4 1.1-55.2 1.4-5.6 6.2-11.4 11.3-13.7 5-2.3 13.4-2.4 18.4-.4m-66.4 44.1c.9.8 1.6 2.8 1.6 4.4 0 3.6-2.4 6-6 6-3 0-6-3-6-6 0-5 6.9-7.9 10.4-4.4m-28.2 45.1c3.9 3.5 1.1 10.3-4.3 10.3-3.5 0-5.9-2.4-5.9-5.7 0-5.5 6.2-8.3 10.2-4.6m-7.8 54.8 3.8 6.5-2.1 4.3c-5.8 11.9 1.6 25.4 14.5 26.5l5.5.5 5.1 8.7c3 5.1 6.1 9.3 7.5 9.9 1.3.6 7.5 1.1 13.8 1.1H208v31.8c0 34.9-.5 38.7-6 46.7-7.9 11.5-23.9 16.1-36.8 10.5-7.1-3.1-14.3-11-16.6-18.3-1-3.1-2.3-6-3-6.6s-4.2-2-7.8-3.1c-14.1-4.3-23.9-16.4-25-30.6l-.3-4.9 20.7-.3 20.7-.2 3.9 6.7 3.9 6.7-1.7 3c-3.8 6.5-3.3 14.6 1.2 20.9 4.4 6.2 15.9 8.7 23.5 5.1 7.2-3.5 11.7-13.7 9.5-21.3-2.4-7.9-10.3-14-18.2-14.1-3.3 0-3.7-.4-9-9.3l-5.5-9.2-27.5-.5c-31.6-.6-30.4-.2-40.3-11-5.1-5.5-8.3-11.5-10.3-19.5-.6-2.5-.6-2.5 6-2.5 6.2 0 6.6.1 8 2.9 3.4 6.4 12.3 11 18.9 9.5 11.5-2.4 18.2-12 15.8-22.5-3.8-16.8-26.8-19.9-34.7-4.8-1.4 2.7-1.8 2.9-7.9 2.9-3.6 0-6.5-.4-6.5-.8 0-.5.7-3.1 1.5-5.9 2.2-7.5 8.8-16.7 15.3-21.3l5.5-4h39.3zm22 14.6c3.1 2.5 3.4 6.1.6 8.9-2.4 2.4-4.8 2.5-7.7.5-3.9-2.7-3.4-8.7.9-10.5 3.2-1.2 3.2-1.2 6.2 1.1m-52.2 12.6c3.8 3.4 1.1 10.3-4 10.3-5.4 0-8.1-6.2-4.5-10.2 2-2.2 6.1-2.3 8.5-.1m62.3 76.9c2.5 2.5 1.6 7.5-1.7 9.4-2.5 1.3-3.1 1.3-5.5 0-5.4-3-3.4-11 2.8-11 1.5 0 3.5.7 4.4 1.6"/>
    <path d="M231.7 131.8c-5.6 6.2 5.2 16.1 19.5 17.8 9.7 1.1 24.5-5 26.8-11.2 2.2-5.8-3.6-10.4-8.9-7.1-8.5 5.3-10.4 5.9-16.2 5.5-4.6-.3-6.8-1.1-10.3-3.6-5-3.6-8.5-4.1-10.9-1.4m43.4 52.7c-1.6 1.4-4.3 5.2-5.8 8.3-2.3 4.8-2.8 7-2.8 13.7s.5 8.9 2.8 13.7c3 6.1 7.7 10.8 10.8 10.8 2.7 0 5.9-3.5 5.9-6.4 0-1.4-1.1-3.8-2.5-5.4-3.2-3.9-4.5-7.4-4.5-12.7s1.3-8.8 4.5-12.7c3-3.6 3.2-7.1.5-9.8s-5.2-2.5-8.9.5m-65.4 35.3c-2.2 2.4-2.1 6.5.1 8.5 4 3.6 10.2.9 10.2-4.5 0-5.1-6.9-7.8-10.3-4m50.7 49.6c-9.8 4.5-16.1 15.4-15.2 26.2.5 6.2 2.8 9.4 6.8 9.4 3.8 0 6.2-3 6-7.7-.1-2.1-.2-5-.1-6.5.1-3.1 5.2-9.4 8.4-10.4 3.2-.9 6.7-4.4 6.7-6.6s-4.3-6.8-6.2-6.8c-.7 0-3.6 1.1-6.4 2.4"/>
</svg>
