<svg xmlns="http://www.w3.org/2000/svg" fill="currentColor" viewBox="0 0 24 24"><path d="M11.302 8.467h9.468q-.799-2.042-2.44-3.506-1.643-1.465-3.773-2.057Zm-2.723 2.367 4.735-8.167q-.326-.059-.651-.088-.326-.03-.651-.03-1.953 0-3.64.74-1.686.74-2.988 1.982zm-5.74 3.55h6.45L4.555 6.218q-.947 1.213-1.48 2.678-.532 1.465-.532 3.122 0 .621.074 1.198t.222 1.169m6.628 6.747 3.196-5.563h-9.41q.8 2.042 2.442 3.507 1.642 1.464 3.772 2.056m2.545.355q1.953 0 3.64-.74 1.686-.74 2.988-1.982l-3.196-5.563-4.734 8.167q.325.059.636.089.31.03.666.03m7.456-3.669q.947-1.213 1.48-2.678.532-1.464.532-3.121 0-.622-.074-1.199-.073-.577-.221-1.168h-6.45zm-7.456 6.036q-2.426 0-4.586-.932t-3.773-2.544-2.545-3.773-.932-4.586q0-2.456.932-4.601t2.545-3.758 3.773-2.545 4.586-.932q2.456 0 4.601.932t3.758 2.545 2.545 3.758.932 4.6q0 2.427-.932 4.587-.933 2.16-2.545 3.773-1.613 1.612-3.758 2.544t-4.601.932" style="stroke-width:.999999"/></svg>