<svg xmlns="http://www.w3.org/2000/svg" fill="currentColor" viewBox="0 0 24 24">
	<path d="M21.336 1.656H2.621c-1.268 0-2.34 1.072-2.34 2.34v12.867c0 1.268 1.072 2.34 2.34 2.34h11.135l3.783 4.16a.39.39 0 0 0 .678-.262v-3.899h3.12c1.267 0 2.339-1.071 2.339-2.34V3.997c0-1.268-1.072-2.34-2.34-2.34M4.96 6.726h5.849a.39.39 0 1 1 0 .779H4.96a.39.39 0 1 1 0-.78m13.257 7.018H4.96a.39.39 0 1 1 0-.78h13.257a.39.39 0 1 1 0 .78m0-3.12H4.96a.39.39 0 1 1 0-.78h13.257a.39.39 0 1 1 0 .78" style="stroke-width:.38991" />
</svg>
