<svg viewBox="0 0 24 24" xmlns="http://www.w3.org/2000/svg">
	<path style="mix-blend-mode:normal" d="M16.034 14.886a7.488 7.488 0 01-3.97 1.156 7.488 7.488 0 01-3.56-.906 7.488 7.488 0 003.802 6.27 7.488 7.488 0 003.732-6.461 7.488 7.488 0 00-.004-.059z" fill="#983ec4" fill-opacity=".7" />
	<path style="mix-blend-mode:normal" d="M8.56 7.465a7.488 7.488 0 00-3.971 1.144 7.488 7.488 0 003.922 6.514 7.488 7.488 0 01-.014-.217 7.488 7.488 0 013.729-6.46 7.488 7.488 0 00-3.666-.981z" fill="#969b00" fill-opacity=".7" />
	<path style="mix-blend-mode:normal" d="M15.972 7.42a7.488 7.488 0 00-3.736 1.018 7.488 7.488 0 013.798 6.466 7.488 7.488 0 003.512-6.343 7.488 7.488 0 00-.006-.237 7.488 7.488 0 00-3.568-.904z" fill="#007dad" fill-opacity=".7" />
	<path style="mix-blend-mode:normal" d="M8.5 15.125a7.488 7.488 0 003.559.922A7.488 7.488 0 0016.03 14.9a7.488 7.488 0 00-3.796-6.463 7.488 7.488 0 00-3.75 6.469 7.488 7.488 0 00.015.22z" fill="#cacaca" fill-opacity=".7" />
	<path style="mix-blend-mode:normal" d="M12.3 21.41a7.488 7.488 0 01-3.8-6.285A7.488 7.488 0 014.574 8.61a7.488 7.488 0 00-3.517 6.341 7.488 7.488 0 007.488 7.489 7.488 7.488 0 003.756-1.03z" fill="#c80000" fill-opacity=".7" />
	<path style="mix-blend-mode:normal" d="M19.541 8.322a7.488 7.488 0 01.006.237 7.488 7.488 0 01-3.516 6.34 7.488 7.488 0 01.002.052 7.488 7.488 0 01-3.732 6.46 7.488 7.488 0 003.672.982 7.488 7.488 0 007.488-7.488 7.488 7.488 0 00-3.92-6.583z" fill="#004198" fill-opacity=".7" />
	<path style="mix-blend-mode:normal" d="M12.059 1.07A7.488 7.488 0 004.57 8.56a7.488 7.488 0 00.004.05 7.488 7.488 0 013.971-1.146 7.488 7.488 0 013.69.973 7.488 7.488 0 013.738-1.02 7.488 7.488 0 013.568.906 7.488 7.488 0 00-7.482-7.251z" fill="#019000" fill-opacity=".7" />
</svg>
