<svg xmlns="http://www.w3.org/2000/svg" viewBox="0 0 24 24"><path fill="#983ec4" fill-opacity=".7" d="M16.034 14.886a7.488 7.488 0 0 1-3.97 1.156 7.488 7.488 0 0 1-3.56-.906 7.488 7.488 0 0 0 3.802 6.27 7.488 7.488 0 0 0 3.732-6.461 7.488 7.488 0 0 0-.004-.059z" style="mix-blend-mode:normal"/><path fill="#969b00" fill-opacity=".7" d="M8.56 7.465a7.488 7.488 0 0 0-3.971 1.144 7.488 7.488 0 0 0 3.922 6.514 7.488 7.488 0 0 1-.014-.217 7.488 7.488 0 0 1 3.729-6.46 7.488 7.488 0 0 0-3.666-.981z" style="mix-blend-mode:normal"/><path fill="#007dad" fill-opacity=".7" d="M15.972 7.42a7.488 7.488 0 0 0-3.736 1.018 7.488 7.488 0 0 1 3.798 6.466 7.488 7.488 0 0 0 3.512-6.343 7.488 7.488 0 0 0-.006-.237 7.488 7.488 0 0 0-3.568-.904z" style="mix-blend-mode:normal"/><path fill="#cacaca" fill-opacity=".7" d="M8.5 15.125a7.488 7.488 0 0 0 3.559.922A7.488 7.488 0 0 0 16.03 14.9a7.488 7.488 0 0 0-3.796-6.463 7.488 7.488 0 0 0-3.75 6.469 7.488 7.488 0 0 0 .015.22z" style="mix-blend-mode:normal"/><path fill="#c80000" fill-opacity=".7" d="M12.3 21.41a7.488 7.488 0 0 1-3.8-6.285A7.488 7.488 0 0 1 4.574 8.61a7.488 7.488 0 0 0-3.517 6.341 7.488 7.488 0 0 0 7.488 7.489 7.488 7.488 0 0 0 3.756-1.03z" style="mix-blend-mode:normal"/><path fill="#004198" fill-opacity=".7" d="M19.541 8.322a7.488 7.488 0 0 1 .006.237 7.488 7.488 0 0 1-3.516 6.34 7.488 7.488 0 0 1 .002.052 7.488 7.488 0 0 1-3.732 6.46 7.488 7.488 0 0 0 3.672.982 7.488 7.488 0 0 0 7.488-7.488 7.488 7.488 0 0 0-3.92-6.583z" style="mix-blend-mode:normal"/><path fill="#019000" fill-opacity=".7" d="M12.059 1.07A7.488 7.488 0 0 0 4.57 8.56a7.488 7.488 0 0 0 .004.05 7.488 7.488 0 0 1 3.971-1.146 7.488 7.488 0 0 1 3.69.973 7.488 7.488 0 0 1 3.738-1.02 7.488 7.488 0 0 1 3.568.906 7.488 7.488 0 0 0-7.482-7.251z" style="mix-blend-mode:normal"/></svg>