<svg xmlns="http://www.w3.org/2000/svg" xmlns:xlink="http://www.w3.org/1999/xlink" fill="currentColor" viewBox="0 0 24 24">
    <defs>
        <linearGradient id="a">
            <stop offset="0" style="stop-color:#e4641d;stop-opacity:1"/>
            <stop offset=".438" style="stop-color:#e2771a;stop-opacity:0"/>
            <stop offset=".563" style="stop-color:#0a69f2;stop-opacity:0"/>
            <stop offset="1" style="stop-color:#2878e5;stop-opacity:1"/>
        </linearGradient>
        <linearGradient xlink:href="#a" id="b" x1="16.621" x2="40.144" y1="9.343" y2="9.343" gradientTransform="rotate(-91.68 21.524 18.62)" gradientUnits="userSpaceOnUse"/>
    </defs>
    <path d="M12.05.285c-.588 0-.958.602-1.697 1.802-1.87 3.053-4.618 7.89-4.617 9.964 0 2.074 2.75 6.914 4.62 9.964.736 1.202 1.106 1.803 1.695 1.802.588 0 .958-.603 1.697-1.802 1.87-3.054 4.619-7.89 4.618-9.964s-2.75-6.911-4.621-9.96C13.009.887 12.639.283 12.05.284"/>
    <path d="M12.06.27c-.589 0-.96.601-1.7 1.8-1.872 3.052-4.625 7.886-4.626 9.96S8.478 18.947 10.345 22c.735 1.202 1.105 1.804 1.694 1.803.588 0 .958-.602 1.698-1.8 1.873-3.053 4.627-7.886 4.627-9.96.001-2.074-2.743-6.914-4.611-9.964C13.018.873 12.648.268 12.059.269" style="fill:url(#b)"/>
</svg>
