<svg version="1.0" viewBox="0 0 96 96" xmlns="http://www.w3.org/2000/svg">
    <path d="M94.561 85.763V24.996c-.03-4.553-2.885-6.997-7.363-7.003l-12.633-.07-.068-6.193c-.04-4.77-3.562-7.318-8.027-7.36l-28.565.03-29.541-.07c-4.927-.051-7.291 2.609-7.34 7.467.31 19.949.16 39.897.038 59.846.085 5.029 3.563 7.216 7.502 7.203l12.678-.07.073 6.375c.077 3.562 2.801 7.144 6.982 7.073l29.604.075h30.217c3.364-.002 6.427-3.226 6.443-6.536zM28.463 25.247H87.34v59.671l-58.877.056V25.247zM8.466 11.724h29.44l28.494.2c.1-.235.015 5.946.015 5.946l-37.757.026c-5.266-.014-7.345 2.822-7.39 7.542.013 15.373-.061 30.746-.13 46.12L8.467 71.45c.103-.007 0-39.818 0-59.727z"/>
</svg>
