<svg xmlns="http://www.w3.org/2000/svg" fill="currentColor" version="1.0" viewBox="0 0 96 96"><path d="m95.484 84.751.074-53.95c-.02-6.211-5.641-13.265-13.03-13.137l-6.192-.243-.005-4.807C76.192 5.97 71.58 1.454 64.228 1.386l-25.7-.005-26.108-.083C6.576 1.238.772 7.393.714 13.155c.367 23.662.19 30.647.045 54.309-.175 9.232 7.249 11.532 11.898 11.543l6.301.833-.107 4.646c.29 5.913 5.32 9.62 10.28 10.389l22.44.089 30.23-.066c8.023.322 13.664-7.806 13.683-11.732zM33.719 24.774l45.685.3c5.47.036 8.792 3.2 8.74 9.472l-.356 42.844c-.057 6.793-2.574 10.092-9.991 10.09l-44.794-.016c-3.964-.059-6.786-3.097-6.857-6.145.031-50.037-.02 50.152-.021-47.175-.037-7.086 1.81-9.366 7.594-9.37M62.837 9.12c2.234.074 5.108.247 5.054 5.261a647 647 0 0 1-.036 2.977l-37.295.031c-7.166.157-12.2 5.307-11.765 11.946.015 18.234-.073 23.979-.154 42.214l-4.325-.054c-3.682-.043-6.032-1.861-5.91-6.002 0 0-.189-26.785-.2-44.392-.337-4.754 3-12.535 11.554-12.221z"/></svg>