<svg xmlns="http://www.w3.org/2000/svg" fill="currentColor" viewBox="0 0 24 24"><path d="m22.729 11.878-4.425-1.658V5.25c0-.687-.426-1.301-1.072-1.544l-4.58-1.718a1.63 1.63 0 0 0-1.159 0l-4.58 1.718A1.65 1.65 0 0 0 5.84 5.25v4.97l-4.425 1.658A1.65 1.65 0 0 0 .349 13.42v5.043c0 .623.352 1.196.911 1.475l4.58 2.29a1.64 1.64 0 0 0 1.476 0l4.759-2.381 4.759 2.381a1.64 1.64 0 0 0 1.475 0l4.58-2.29a1.65 1.65 0 0 0 .912-1.475v-5.043c0-.687-.426-1.3-1.072-1.543m-5.982-1.622-3.894 1.461V8.593L16.747 6.9zm-9.344-5.07 4.672-1.75 4.672 1.75v.027L12.075 7.11 7.403 5.213Zm3.847 13.333-3.893 1.947v-3.623l3.893-1.777zm0-5.13-4.672 1.897-4.672-1.897v-.027l4.672-1.75 4.672 1.75zm10.993 5.13-3.893 1.947v-3.623l3.893-1.777zm0-5.13-4.672 1.897-4.672-1.897v-.027l4.672-1.75 4.672 1.75z" style="stroke-width:.0458046"/></svg>