<svg xmlns="http://www.w3.org/2000/svg" viewBox="0 0 24 24"><path fill="#5865f2" d="M20.21 4.295a19.3 19.3 0 0 0-4.86-1.523 16 16 0 0 0-.622 1.29 17.7 17.7 0 0 0-5.388 0 12 12 0 0 0-.631-1.293 19.3 19.3 0 0 0-4.863 1.533C.768 8.95-.065 13.482.351 17.95a19.6 19.6 0 0 0 5.964 3.056q.721-.995 1.274-2.105a12.4 12.4 0 0 1-2.008-.976q.252-.187.491-.392c3.877 1.813 8.09 1.813 11.92 0q.243.2.492.392-.958.575-2.012.98.55 1.11 1.275 2.101a19.3 19.3 0 0 0 5.966-3.056c.489-5.18-.836-9.67-3.504-13.656M8.118 15.205c-1.163 0-2.117-1.088-2.117-2.41 0-1.32.932-2.409 2.117-2.409s2.14 1.088 2.117 2.41c.003 1.324-.932 2.41-2.114 2.41m7.829 0c-1.163 0-2.117-1.089-2.117-2.41s.932-2.41 2.114-2.41c1.188 0 2.142 1.088 2.12 2.41 0 1.324-.932 2.41-2.117 2.41" style="stroke-width:3.10913"/></svg>