<svg xmlns="http://www.w3.org/2000/svg" fill="currentColor" viewBox="0 0 24 24">
	<path d="M14.995 16.288a2.006 2.006 0 0 0-2.002 1.998 2.006 2.006 0 0 0 1.998 2.002 2.006 2.006 0 0 0 2.002-1.998 2.006 2.006 0 0 0-1.998-2.002m.003-2A2.006 2.006 0 0 0 17 12.29a2.006 2.006 0 0 0-1.998-2.002A2.006 2.006 0 0 0 13 12.286a2.006 2.006 0 0 0 1.998 2.002m.007-6a2.006 2.006 0 0 0 2.002-1.998 2.006 2.006 0 0 0-1.998-2.002 2.006 2.006 0 0 0-2.002 1.998 2.006 2.006 0 0 0 1.998 2.002M8.995 16.288a2.006 2.006 0 0 0-2.002 1.998 2.006 2.006 0 0 0 1.998 2.002 2.006 2.006 0 0 0 2.002-1.998 2.006 2.006 0 0 0-1.998-2.002m.003-2A2.006 2.006 0 0 0 11 12.29a2.006 2.006 0 0 0-1.998-2.002A2.006 2.006 0 0 0 7 12.286a2.006 2.006 0 0 0 1.998 2.002m.007-6a2.006 2.006 0 0 0 2.002-1.998 2.006 2.006 0 0 0-1.998-2.002 2.006 2.006 0 0 0-2.002 1.998 2.006 2.006 0 0 0 1.998 2.002" />
</svg>
