<svg xmlns="http://www.w3.org/2000/svg" fill="currentColor" viewBox="0 0 24 24">
	<path d="M16 9.293a2.006 2.006 0 0 0 1.998 2.002A2.006 2.006 0 0 0 20 9.297a2.006 2.006 0 0 0-1.998-2.002A2.006 2.006 0 0 0 16 9.293m-2-.003a2.006 2.006 0 0 0-1.998-2.002A2.006 2.006 0 0 0 10 9.286a2.006 2.006 0 0 0 1.998 2.002A2.006 2.006 0 0 0 14 9.29m-6-.007a2.006 2.006 0 0 0-1.998-2.002A2.006 2.006 0 0 0 4 9.28a2.006 2.006 0 0 0 1.998 2.002A2.006 2.006 0 0 0 8 9.283M16 15.293a2.006 2.006 0 0 0 1.998 2.002A2.006 2.006 0 0 0 20 15.297a2.006 2.006 0 0 0-1.998-2.002A2.006 2.006 0 0 0 16 15.293m-2-.003a2.006 2.006 0 0 0-1.998-2.002A2.006 2.006 0 0 0 10 15.286a2.006 2.006 0 0 0 1.998 2.002A2.006 2.006 0 0 0 14 15.29m-6-.007a2.006 2.006 0 0 0-1.998-2.002A2.006 2.006 0 0 0 4 15.28a2.006 2.006 0 0 0 1.998 2.002A2.006 2.006 0 0 0 8 15.283" />
</svg>
