<svg version="1.0" viewBox="0 0 64 64" fill="currentColor" xmlns="http://www.w3.org/2000/svg">
	<path d="M26.202 20.764L5.45 43.424l-.609 7.604c-.446 3.339-1.337 6.9-2.006 8.012-1.56 2.337-.334 3.895 1.672 2.226.78-.668 4.568-1.558 8.357-1.892l12.145-2.327 18.917-18.93c20.057-20.142 18.301-22.475 18.301-26.48 0-5.676-3.901-9.699-9.694-9.57-6.245.137-6.05-1.555-26.33 18.697zM55.378 8.188c2.728 3.377 1.783 6.294.622 8.735l-2.13 2.614s-2.387-3.66-3.907-5.21c-1.601-1.634-5.408-4.223-5.408-4.223l2.518-2.251c1.839-1.147 4.627-2.447 8.305.335zm-5.97 14.831c-1.838 2.679-3.688 4.99-13.478 14.767L23.959 50.388c-2.647-3.98-7.04-5.255-10.887-7.798L26.51 28.796c8.35-8.573 12.535-13.13 14.06-14.054 3.54 1.31 7.109 5.492 8.838 8.277zM18.454 53.667L15 54.752c-5.46 1.558-6.405 1.951-6.405-.72.206-2.467.019-7.637 2.375-6.342 3.356 2.133 5.017 2.887 7.485 5.977z" />
</svg>
