<svg xmlns="http://www.w3.org/2000/svg" fill="currentColor" viewBox="0 0 24 24"><path d="M.287 10.947V8.262a39.4 39.4 0 0 1 5.831-1.1 54 54 0 0 1 5.92-.323q2.996 0 5.919.323 2.923.324 5.83 1.1v2.685a23 23 0 0 0-1.174-.291l-1.175-.26v4.206h-2.35V9.944a49 49 0 0 0-7.05-.518q-1.762 0-3.525.114-1.763.113-3.526.372v4.69h-2.35v-4.238a46 46 0 0 0-2.35.583m4.7 12.711 1.704-12.27q.529-.065 1.205-.114.675-.048 1.204-.08L7.337 23.657ZM8.513.37h2.35l-.588 5.05q-.528.031-1.19.08-.66.048-1.19.113Zm2.35 23.288h2.35v-5.175h-2.35zm0-7.763h2.35V11.13h-2.35ZM13.213.37h2.35l.616 5.243q-.528-.032-1.19-.097-.66-.064-1.189-.097Zm3.525 23.288-1.763-12.465q.53.033 1.204.097.675.066 1.205.13l1.704 12.238z" style="stroke-width:.0308243"/></svg>