<svg xmlns="http://www.w3.org/2000/svg" fill="currentColor" viewBox="0 -960 960 960">
	<path d="M163.311-296.623c-28.311-18.874-28.311-347.88 0-366.754C191.623-682.251 428.436-524.376 428.436-480c0 44.376-236.813 202.251-265.125 183.377zm400 0c-28.311-18.874-28.311-347.88 0-366.754C591.623-682.251 828.436-524.376 828.436-480c0 44.376-236.813 202.251-265.125 183.377zM225.73-411.3c10.73 7.1 100.253-52.143 100.253-68.699 0-16.556-89.523-75.8-100.253-68.699C215-541.599 215-418.4 225.73-411.3zm400 0c10.73 7.1 100.253-52.143 100.253-68.699 0-16.556-89.523-75.8-100.253-68.699C615-541.599 615-418.4 625.73-411.3z" />
</svg>
