<svg xmlns="http://www.w3.org/2000/svg" id="gear-svg" stroke="currentColor" fill="none" viewBox="0 0 16 16"><style><![CDATA[#gear-svg>.st0{fill:none;stroke-linecap:round;stroke-linejoin:round}]]></style><path d="M7 1.6c.5.5 1.3.6 1.8.1l.1-.1.6-.7c.5-.5 1.3-.6 1.8-.1.3.3.4.6.4 1v.9c0 .7.5 1.3 1.2 1.4h1c.7 0 1.3.5 1.4 1.2 0 .4-.1.8-.4 1l-.5.7c-.5.5-.6 1.3-.1 1.8l.1.1.7.6c.5.5.6 1.3.1 1.8-.3.3-.6.4-1 .4h-.9c-.7 0-1.3.5-1.4 1.2v1c0 .7-.5 1.3-1.2 1.4-.4 0-.8-.1-1-.4l-.7-.5c-.5-.5-1.3-.6-1.8-.1l-.1.1-.6.7c-.5.5-1.3.6-1.8.1-.3-.3-.4-.6-.4-1v-.9c0-.7-.5-1.3-1.2-1.4h-1c-.7 0-1.3-.5-1.4-1.2 0-.4.1-.8.4-1l.5-.7c.5-.5.6-1.3.1-1.8l-.1-.1-.7-.7C.4 5.9.4 5.1.8 4.6c.3-.3.6-.4 1-.4h.9c.7 0 1.3-.5 1.4-1.2V2c0-.7.5-1.3 1.2-1.4.4 0 .8.1 1 .4l.7.6z" class="st0"/><path d="M8 11c1.7 0 3-1.3 3-3S9.7 5 8 5 5 6.3 5 8s1.3 3 3 3z" class="st0"/></svg>