<svg xmlns="http://www.w3.org/2000/svg" viewBox="0 0 24 24">
	<path fill="currentColor" fill-rule="evenodd" d="M12.085.104A11.957 11.968 0 0 1 23.882 12.23a11.957 11.968 0 0 1-8.09 11.53c-.598.119-.798-.28-.798-.6v-3.31c0-1.157-.398-1.875-.797-2.274 2.63-.28 5.42-1.317 5.42-5.984a4.783 4.787 0 0 0-1.235-3.271 3.986 3.99 0 0 0-.12-3.192s-.996-.319-3.228 1.197a11.957 11.968 0 0 0-5.979 0C6.863 4.811 5.867 5.21 5.867 5.21a3.986 3.99 0 0 0-.12 3.191 4.783 4.787 0 0 0-1.195 3.232c0 4.667 2.75 5.704 5.38 5.984a2.79 2.793 0 0 0-.757 1.635c-.717.32-2.431.838-3.468-1.037 0 0-.637-1.197-1.833-1.237 0 0-1.156 0-.08.719 0 0 .797.398 1.316 1.795 0 0 .677 2.154 3.985 1.436v2.234c0 .319-.199.718-.797.598a11.957 11.968 0 0 1-8.09-11.529A11.957 11.968 0 0 1 12.044.104" style="stroke-width:39.8753" />
</svg>
