<svg xmlns="http://www.w3.org/2000/svg" fill="currentColor" viewBox="0 0 24 24">
	<path d="M20.73 16.336a.47.47 0 0 0-.661.073 10 10 0 0 1-.692.778.47.47 0 0 0 .005.666.47.47 0 0 0 .33.136.47.47 0 0 0 .336-.141 11 11 0 0 0 .756-.85.47.47 0 0 0-.073-.662m-1.85 1.958a.47.47 0 0 0-.66-.091c-1.78 1.35-3.939 2.132-6.24 2.262a.47.47 0 0 0 .025.941h.027c2.49-.141 4.826-.99 6.757-2.453a.47.47 0 0 0 .09-.66" />
	<path d="M23.492 9.514c-.268-1.022-.695-2-1.27-2.91a11.3 11.3 0 0 0-3.192-3.29c-2.045-1.398-4.473-2.137-7.023-2.137a13 13 0 0 0-2.129.177 12.26 12.26 0 0 0-5.41 2.333C2.18 5.441.698 7.9.298 10.61a10 10 0 0 0-.111 1.493c0 1.945.56 3.855 1.62 5.523 1.024 1.613 2.489 2.965 4.235 3.91v.001c.992.536 2.06.935 3.173 1.184a12.8 12.8 0 0 0 2.792.307c2.286 0 4.504-.604 6.414-1.747 1.866-1.116 3.35-2.688 4.292-4.544a10.188 10.188 0 0 0 .779-7.221m-4.275-4.888a10.3 10.3 0 0 1 1.581 1.595l-.93-.214a.97.97 0 0 0-.842.199.97.97 0 0 0-.355.788.04.04 0 0 1-.017.032l-.684.447a.04.04 0 0 1-.038 0l-.963-.548a.23.23 0 0 1-.107-.246l.216-.925a.224.224 0 0 1 .213-.173l.816-.023a1.174 1.174 0 0 0 1.11-.932M6.037 19.403l-.137.96c-2.96-1.848-4.771-4.957-4.771-8.26q0-.44.042-.882l.63.102q.24.039.482.039h.32c.442 0 .881.145 1.237.408l.484.359a.19.19 0 0 1 .073.129l.066.606a.185.185 0 0 1-.155.203c-.55.088-.958.574-.949 1.131l.035 2.135a1.12 1.12 0 0 0 .23.666l.768 1.006a3 3 0 0 0 1.416 1.022.346.346 0 0 1 .23.376m3.033 2.314a11.4 11.4 0 0 1-2.29-.858l.189-1.322a1.29 1.29 0 0 0-.855-1.4 2.07 2.07 0 0 1-.974-.704l-.768-1.005a.2.2 0 0 1-.038-.11l-.034-2.135a.186.186 0 0 1 .156-.186 1.126 1.126 0 0 0 .942-1.234l-.065-.606a1.13 1.13 0 0 0-.45-.785l-.483-.358a3.04 3.04 0 0 0-1.799-.594h-.319q-.166 0-.331-.027l-.644-.104c.457-2.285 1.77-4.35 3.733-5.854a11.3 11.3 0 0 1 4.795-2.117 2.1 2.1 0 0 1 .602.832l.026.067a2 2 0 0 1 .132.527l.024.205a2.1 2.1 0 0 1-.161 1.074l-.256.583a2.07 2.07 0 0 1-.796.923l-.319.201a1.06 1.06 0 0 0-.493.949l.043.861a.11.11 0 0 1-.036.09.11.11 0 0 1-.091.032.12.12 0 0 1-.092-.06l-.392-.728a1.06 1.06 0 0 0-.647-.518L5.995 6.97a1.6 1.6 0 0 0-1.098.084l-.33.15a1.614 1.614 0 0 0-.902 1.826 1.6 1.6 0 0 0 .43.776l.9.9a2 2 0 0 1 .145.16l.617.761a1.42 1.42 0 0 0 1.108.529h.005l1.68-.005h.002c.172 0 .333.092.42.24a1.43 1.43 0 0 0 .933.677l.63.135a.49.49 0 0 1 .325.243l.304.557a1.25 1.25 0 0 0 .533.518l1.43.726a.31.31 0 0 1 .169.32.3.3 0 0 1-.104.195l-.543.48a1.26 1.26 0 0 0-.343.5l-.119.316a.37.37 0 0 1-.206.213l-.578.24a1.31 1.31 0 0 0-.811 1.214.4.4 0 0 1-.043.172zm2.936.369a12 12 0 0 1-1.979-.166l1.355-2.585a1.3 1.3 0 0 0 .15-.61.37.37 0 0 1 .23-.345l.579-.24a1.32 1.32 0 0 0 .727-.752l.118-.315a.3.3 0 0 1 .086-.125l.543-.48a1.25 1.25 0 0 0 .414-.785 1.26 1.26 0 0 0-.677-1.275l-1.43-.727a.3.3 0 0 1-.132-.129l-.305-.558a1.43 1.43 0 0 0-.954-.712l-.63-.135a.49.49 0 0 1-.317-.23 1.43 1.43 0 0 0-1.233-.708h-.004l-1.681.005h-.002a.48.48 0 0 1-.377-.18l-.617-.76a3 3 0 0 0-.21-.234l-.9-.9a.67.67 0 0 1-.178-.321.67.67 0 0 1 .374-.757l.33-.15a.67.67 0 0 1 .455-.035l1.385.386a.12.12 0 0 1 .07.057l.393.728a1.06 1.06 0 0 0 .831.552 1.06 1.06 0 0 0 .832-.289 1.06 1.06 0 0 0 .326-.818l-.043-.861a.12.12 0 0 1 .054-.105l.319-.2a3 3 0 0 0 1.156-1.342l.256-.584a3 3 0 0 0 .235-1.56l-.024-.205a3 3 0 0 0-.192-.766l-.027-.067a3 3 0 0 0-.347-.639h.001q.52-.045 1.04-.045c2.275 0 4.444.634 6.288 1.837l.004.436a.226.226 0 0 1-.218.226l-.816.023a1.17 1.17 0 0 0-1.103.9l-.217.924c-.117.5.112 1.026.558 1.28l.963.548a1 1 0 0 0 .485.13 1 1 0 0 0 .534-.16l.684-.447a.98.98 0 0 0 .443-.853.03.03 0 0 1 .013-.03c.014-.011.027-.008.032-.007l1.056.242.08.015.746.107c.325.54.594 1.107.803 1.691l-.73-.176-.088-.018-.796-.128a2.67 2.67 0 0 0-2.353.786l-.12.125a2.67 2.67 0 0 0-.695 1.333l-.303 1.535a2.66 2.66 0 0 0 .17 1.583 2.68 2.68 0 0 0 2.148 1.591l.148.017a2.7 2.7 0 0 0 1.204-.139l.502-.18a.225.225 0 0 1 .25.07l.066.082a.23.23 0 0 1 .05.134l.024.819c-1.803 3.449-5.64 5.67-9.812 5.67m10.46-7.23-.055-.067a1.17 1.17 0 0 0-.908-.433q-.198 0-.392.068l-.502.18a1.74 1.74 0 0 1-.78.09l-.148-.016a1.74 1.74 0 0 1-1.391-1.03 1.72 1.72 0 0 1-.11-1.026l.303-1.535a1.73 1.73 0 0 1 .45-.863l.12-.125a1.73 1.73 0 0 1 1.524-.51l.796.13q.008 0 .017.003l1.257.303a9.2 9.2 0 0 1 .237 2.078c0 .943-.14 1.865-.419 2.754" />
</svg>
