<svg xmlns="http://www.w3.org/2000/svg" width="24" height="24" preserveAspectRatio="xMidYMid" viewBox="-3 0 7.86 7.86">
	<path fill="#4285f4" d="M12.052 8.96c0-.716-.051-1.239-.162-1.78H4.68v3.23h4.232c-.086.802-.546 2.011-1.57 2.823l-.015.109 2.28 2.001.158.018c1.45-1.518 2.287-3.752 2.287-6.402" style="stroke-width:.0626224" transform="matrix(.51004 0 0 .44168 -1.376 .066)" />
	<path fill="#34a853" d="M4.68 17.47c2.073 0 3.814-.775 5.085-2.109l-2.423-2.128c-.649.513-1.52.87-2.662.87-2.031 0-3.755-1.517-4.37-3.616l-.09.009-2.37 2.079-.03.098c1.262 2.843 3.856 4.796 6.86 4.796" style="stroke-width:.0626224" transform="matrix(.51004 0 0 .44168 -1.376 .066)" />
	<path fill="#fbbc05" d="M.31 10.487a6 6 0 0 1-.255-1.721c0-.6.094-1.18.247-1.722L.298 6.93l-2.4-2.112-.079.042A9.7 9.7 0 0 0-3 8.766a9.7 9.7 0 0 0 .82 3.907z" style="stroke-width:.0626224" transform="matrix(.51004 0 0 .44168 -1.376 .066)" />
	<path fill="#eb4335" d="M4.68 3.428c1.442 0 2.414.706 2.969 1.296l2.167-2.399C8.486.923 6.753.062 4.68.062 1.676.062-.918 2.016-2.18 4.86L.301 7.044C.925 4.946 2.65 3.428 4.68 3.428" style="stroke-width:.0626224" transform="matrix(.51004 0 0 .44168 -1.376 .066)" />
</svg>
