<svg xmlns="http://www.w3.org/2000/svg" fill="currentColor" version="1.0" viewBox="0 0 96 96"><path d="M38.7 9c-4.9 1.3-11.3 4.5-16 8.3l-3.8 3-4.4-4.3c-2.4-2.3-4.8-3.9-5.4-3.6-1.6 1-1.5 20.8.1 22.4s21.4 1.7 22.4.1c.3-.6-1.1-2.8-3.1-4.9l-3.8-3.9 2.4-2.1c1.3-1.2 4.9-3.3 7.9-4.8 4.6-2.3 6.8-2.7 13.5-2.6 9.5 0 15.7 2.5 22 8.9C77 32 79.4 38 79.4 48c.1 7.8-.2 9-3.3 14.8-5.3 9.8-14.4 15.8-25.6 16.9-15 1.4-28.5-7.9-33-22.8-2.2-7.3-2.9-8.3-5.3-8.7-7.9-1.2-1.9 19.3 8.5 28.9 2.4 2.2 7.4 5.5 11.1 7.2 6.1 2.9 7.6 3.2 16.2 3.2s10.1-.3 16.2-3.2c9.3-4.4 15.1-10 19.6-19.1 3.4-7.1 3.7-8.2 3.7-16.6 0-6.5-.5-10.6-1.9-14.3C81.8 24 72.3 14.4 62.3 10.6 56.7 8.5 44.1 7.7 38.7 9"/><path d="M45.2 25.2C44.4 26 44 30.3 44 38v11.6l5.8 5.7c5.8 5.8 7.8 6.7 10 4.5 2.1-2.1 1.3-4.3-3.3-8.8L52 46.6V36.5c0-10.3-.7-12.5-4-12.5-.9 0-2.1.5-2.8 1.2"/></svg>