<svg xmlns="http://www.w3.org/2000/svg" fill="currentColor" viewBox="0 0 24 24">
	<path d="M6.07 6.144C3.046 7.721.476 9.101.355 9.191c-.12.107-.196.364-.166.577.045.348.65.712 5.775 3.396 3.16 1.637 5.88 2.987 6.047 2.987.454-.016 11.46-5.822 11.686-6.171.409-.622.832-.38-8.587-5.261-1.542-.804-2.978-1.456-3.174-1.456-.197 0-2.843 1.304-5.866 2.881" />
	<path d="M1.444 13.38c-1.013.53-1.225.712-1.255 1.046-.045.334.06.47.53.773 1.48.925 10.93 5.716 11.262 5.716.378 0 10.96-5.428 11.505-5.883a.73.73 0 0 0 .227-.621c-.03-.319-.273-.516-1.285-1.046l-1.24-.652-4.279 2.244c-3.764 1.97-4.369 2.244-4.973 2.228-.59 0-1.33-.348-4.944-2.228a375 375 0 0 0-4.293-2.23c-.03.016-.59.304-1.255.653" />
</svg>
