<svg xmlns="http://www.w3.org/2000/svg" fill="currentColor" viewBox="0 -960 960 960">
	<path d="M440-280H280c-55.333 0-102.5-19.5-141.5-58.5S80-424.667 80-480s19.5-102.5 58.5-141.5S224.667-680 280-680h160v80H280c-33.333 0-61.667 11.667-85 35s-35 51.667-35 85 11.667 61.667 35 85 51.667 35 85 35h160ZM320-440s-41.828.748-42.241-39.255C277.345-519.257 320-520 320-520h320s39.746-2.553 40.18 38.19C680.615-441.066 640-440 640-440Zm200 160v-80h160c33.333 0 61.667-11.667 85-35s35-51.667 35-85-11.667-61.667-35-85-51.667-35-85-35H520v-80h160c55.333 0 102.5 19.5 141.5 58.5S880-535.333 880-480s-19.5 102.5-58.5 141.5S735.333-280 680-280z" />
</svg>
