<svg xmlns="http://www.w3.org/2000/svg" xml:space="preserve" width="24" height="24" viewBox="0 0 11.46 11.46"><path d="M10.406 0H1.035C.463 0 0 .463 0 1.035v9.371c0 .572.463 1.035 1.035 1.035h9.371c.572 0 1.035-.463 1.035-1.035V1.035C11.441.463 10.978 0 10.406 0M3.54 9.88a.3.3 0 0 1-.3.3H1.956a.3.3 0 0 1-.301-.3V4.504c0-.167.135-.301.301-.301H3.24c.167 0 .301.134.301.3zm-.942-6.183a1.218 1.218 0 1 1 0-2.436 1.218 1.218 0 0 1 0 2.436m7.643 6.206a.277.277 0 0 1-.277.277H8.588a.277.277 0 0 1-.277-.277v-2.52c0-.377.11-1.648-.983-1.648-.848 0-1.02.87-1.054 1.26v2.908a.277.277 0 0 1-.277.277h-1.33a.277.277 0 0 1-.278-.277V4.48c0-.152.124-.276.277-.276h1.33c.154 0 .278.124.278.276v.47c.314-.472.781-.837 1.776-.837 2.203 0 2.19 2.059 2.19 3.19z" style="fill:#0077b7;stroke-width:.0299512"/></svg>