<svg xmlns="http://www.w3.org/2000/svg" fill="currentColor" viewBox="0 0 48 48"><path d="M24.05 28.785c-1.674 0-3.075-.601-4.203-1.805-1.13-1.203-1.693-2.664-1.693-4.383V7.944c0-1.621.572-3 1.718-4.135 1.146-1.135 2.537-1.703 4.174-1.703 1.637 0 3.03.568 4.178 1.703 1.148 1.135 1.722 2.514 1.722 4.135v14.653c0 1.72-.564 3.18-1.693 4.383-1.129 1.204-2.53 1.805-4.203 1.805zm-1.752 17.689v-7.94c-4.125-.428-7.589-2.16-10.39-5.195-2.803-3.036-4.204-8.68-4.204-10.742 0-2.063 3.503-1.77 3.503 0s1.25 6.519 3.753 8.932c2.502 2.413 5.528 3.62 9.077 3.62 3.55 0 6.58-1.207 9.09-3.62 2.51-2.413 3.766-7.161 3.766-8.932 0-1.77 3.503-2.063 3.503 0s-1.401 7.706-4.204 10.742c-2.802 3.035-6.265 4.767-10.39 5.195v7.94z"/></svg>