<svg xmlns="http://www.w3.org/2000/svg" fill="currentColor" viewBox="0 0 48 48"><path d="M24.05 30.785q-2.511 0-4.203-1.805-1.695-1.805-1.693-4.383V7.944q0-2.432 1.718-4.135 1.719-1.703 4.174-1.703t4.178 1.703q1.722 1.703 1.722 4.135v16.653q0 2.58-1.693 4.383-1.694 1.806-4.203 1.805m-1.752 15.689v-7.94q-6.188-.642-10.39-5.195c-2.803-3.036-4.204-8.68-4.204-10.742s3.503-1.77 3.503 0 1.25 6.519 3.753 8.932q3.753 3.62 9.077 3.62 5.325 0 9.09-3.62c2.51-2.413 3.766-7.161 3.766-8.932 0-1.77 3.503-2.063 3.503 0s-1.401 7.706-4.204 10.742q-4.203 4.553-10.39 5.195v7.94z"/></svg>