<svg xmlns="http://www.w3.org/2000/svg" fill="currentColor" viewBox="0 0 48 48"><path d="M24.034 30.91q-2.511 0-4.203-1.805t-1.693-4.383V8.069c0-1.621.589-3.125 1.734-4.26q1.719-1.703 4.174-1.703t4.178 1.703c1.148 1.135 1.706 2.639 1.706 4.26v16.653c0 .186.001.557-.08.765-.027.071-11.088-11.504-11.667-12.118-.075-.08-.04 2.104-.038 2.296.028 2.828 9.535 9.996 11.103 12.02.35.45-.598.98-1.01 1.42q-1.695 1.806-4.204 1.805m-1.736 15.564-.016-7.815q-6.187-.642-10.39-5.195c-2.803-3.036-4.188-8.805-4.188-10.867s3.487-1.645 3.487.125 1.25 6.519 3.753 8.932q3.753 3.62 9.077 3.62 5.325 0 9.09-3.62c.076-.073.146-.297.225-.226.052.047 2.286 2.438 2.403 2.489.047.02 1.132-1.06 1.095-1.117-.317-.49-2.388-2.5-2.27-2.65 2.002-2.546 2.313-5.845 2.313-7.428 0-1.77 3.503-2.063 3.503 0s-.709 7.048-3.512 10.084-6.957 5.425-11.082 5.853l.016 7.815z" style="stroke-width:7.2"/><path d="m7.535 6.98 33.241 34.645" style="stroke:currentColor;stroke-width:3.7728;stroke-linecap:round;stroke-linejoin:round;stroke-dasharray:none;stroke-opacity:1"/></svg>