<svg xmlns="http://www.w3.org/2000/svg" fill="currentColor" viewBox="0 -960 960 960">
	<path d="M548.284-265.997c-28.284-65.996-28.284-362.01 0-428.006 28.285-65.997 155.147-65.997 183.432 0 28.284 65.996 28.284 362.01 0 428.006-28.285 65.997-155.147 65.997-183.432 0Zm-320 0c-28.284-65.996-28.284-362.01 0-428.006 28.285-65.997 155.147-65.997 183.432 0 28.284 65.996 28.284 362.01 0 428.006-28.285 65.997-155.147 65.997-183.432 0Zm381.144-61.143c9.428 47.14 51.716 47.14 61.144 0 9.428-47.14 9.428-258.58 0-305.72-9.428-47.14-51.716-47.14-61.144 0-9.428 47.14-9.428 258.58 0 305.72zm-320 0c9.428 47.14 51.716 47.14 61.144 0 9.428-47.14 9.428-258.58 0-305.72-9.428-47.14-51.716-47.14-61.144 0-9.428 47.14-9.428 258.58 0 305.72zM280-680v400zm320 0v400z" />
</svg>
