<svg xmlns="http://www.w3.org/2000/svg" fill="currentColor" viewBox="0 0 24 24"><path d="M22.8 11.915c.072-.637-.645-1.2-1.13-1.132l-7.301.071a1.04 1.04 0 0 1-1.132-1.131l-.07-7.513a1.04 1.04 0 0 0-1.132-1.131c-.636-.07-1.131.424-1.202 1.06l-.07 7.513c-.071.636-.566 1.131-1.132 1.131l-7.248.071c-.636.07-1.131.566-1.131 1.131a1.04 1.04 0 0 0 1.131 1.132h7.319a1.04 1.04 0 0 1 1.131 1.131v7.46a1.04 1.04 0 0 0 1.132 1.132c.636-.07 1.131-.566 1.131-1.131v-7.46c.07-.637.566-1.132 1.131-1.132H21.6a1.354 1.354 0 0 0 1.202-1.202z"/></svg>