<svg xmlns="http://www.w3.org/2000/svg" viewBox="0 0 8 8"><path fill="currentColor" d="M3.296.749C3.283.548 3.277.447 3.3.366a.5.5 0 0 1 .318-.338C3.697 0 3.798 0 3.999 0s.302 0 .382.028a.5.5 0 0 1 .318.338c.023.081.016.182.004.383l-.019.299c-.053.85-.08 1.276.175 1.433l.026.015c.264.142.619-.094 1.329-.565l.25-.166c.168-.111.252-.167.333-.188a.5.5 0 0 1 .452.106c.063.055.114.143.214.317.101.174.151.262.167.344a.499.499 0 0 1-.134.444c-.059.06-.149.105-.33.195l-.268.134c-.763.379-1.145.568-1.154.868v.03c.009.299.391.489 1.154.868l.269.133c.18.09.271.134.33.195a.502.502 0 0 1 .133.445c-.016.082-.066.17-.167.344-.1.174-.151.262-.215.317a.499.499 0 0 1-.451.106c-.082-.021-.166-.077-.334-.188l-.25-.166c-.71-.471-1.065-.707-1.329-.565a.6.6 0 0 0-.026.015c-.254.157-.227.583-.174 1.433l.019.299c.013.201.019.301-.004.383a.498.498 0 0 1-.318.338C4.301 8 4.201 8 3.999 8s-.302 0-.382-.028a.497.497 0 0 1-.317-.338c-.023-.081-.017-.182-.004-.383l.019-.299c.053-.85.08-1.276-.175-1.433l-.026-.015c-.264-.142-.619.094-1.329.565l-.25.166c-.168.111-.252.167-.333.188a.5.5 0 0 1-.452-.106C.686 6.262.636 6.174.535 6s-.151-.262-.167-.344a.5.5 0 0 1 .134-.445c.059-.06.149-.105.33-.195l.268-.133c.763-.379 1.145-.569 1.154-.868v-.03c-.009-.3-.391-.489-1.154-.868l-.268-.134c-.18-.09-.271-.134-.33-.195a.499.499 0 0 1-.134-.444c.016-.082.066-.17.167-.344s.151-.262.215-.317a.5.5 0 0 1 .452-.106c.082.021.166.077.333.188l.25.166c.71.471 1.065.707 1.329.565a.6.6 0 0 0 .026-.015c.255-.158.228-.583.175-1.433z"/></svg>