<svg xmlns="http://www.w3.org/2000/svg" fill="currentColor" viewBox="0 -960 960 960"><path d="M800.14-295.794C770.28-279.814 536.564-435.624 536.564-480c0-44.376 233.716-200.187 263.576-184.206 29.86 15.98 29.86 352.431 0 368.412zm-400 0C370.28-279.814 136.564-435.624 136.564-480c0-44.376 233.716-200.187 263.576-184.206 29.86 15.98 29.86 352.431 0 368.412zm-61.426-115.208c11.286-6.065 11.286-131.931 0-137.996-11.286-6.065-99.696 52.442-99.696 68.998 0 16.556 88.41 75.063 99.696 68.998zm400 0c11.286-6.065 11.286-131.931 0-137.996-11.286-6.065-99.696 52.442-99.696 68.998 0 16.556 88.41 75.063 99.696 68.998z"/></svg>