<svg xmlns="http://www.w3.org/2000/svg" viewBox="0 0 24 24" fill="currentColor">
	<path d="M23.781.403a.253.254 0 0 0-.19-.196C20.468-.559 13.246 2.171 9.334 6.093a16.915 16.96 0 0 0-1.901 2.252c-1.207-.107-2.413-.018-3.441.432-2.902 1.28-3.746 4.62-3.982 6.058a.514.516 0 0 0 .563.6l4.66-.516a10.357 10.385 0 0 0 .063 1.054 1.042 1.045 0 0 0 .304.642l1.804 1.805a1.045 1.048 0 0 0 .64.305 10.327 10.354 0 0 0 1.046.063l-.512 4.666a.515.516 0 0 0 .598.564c1.43-.23 4.768-1.077 6.038-3.986.448-1.03.54-2.235.436-3.438a16.95 16.996 0 0 0 2.253-1.907c3.924-3.916 6.632-10.995 5.88-14.284m-9.795 9.613a2.561 2.568 0 1 1 3.621 0 2.559 2.565 0 0 1-3.621 0" style="stroke-width:.0534315" />
	<path d="M7.369 19.603c-.29.293-.757.407-1.318.505a1.862 1.862 0 0 1-2.146-2.162c.086-.486.342-1.167.5-1.327a.232.233 0 0 0-.193-.397 3.18 3.2 0 0 0-1.862.913C1.103 18.39.986 23.048.986 23.048s4.631-.118 5.877-1.374a3.164 3.184 0 0 0 .909-1.875c.02-.223-.25-.356-.403-.196" style="stroke-width:.0531809" />
</svg>
