<svg xmlns="http://www.w3.org/2000/svg" fill="currentColor" viewBox="0 0 24 24">
	<path d="M23.747 12.005c.084 1.132-2.652 5.013-2.652 5.013l-1.923-.269 2.285-3.717-5.815-.273V11.25l5.768-.203-2.216-4.163 1.983-.41s2.63 4.444 2.57 5.53" style="stroke-width:1.50793" />
	<path fill="none" d="M24 24H0V0h24z" />
	<path d="M11.07 15.674c-3.217 0-4.828-3.89-2.553-6.164 2.274-2.275 6.164-.664 6.164 2.553a3.61 3.61 0 0 1-3.611 3.61" style="stroke-width:2.40717" />
	<path d="M.339 11.956c-.014 9.658 11.54 14.637 18.55 7.995l-1.731-.925C13.482 22.733 6.807 21.856 3.65 17.6c-1.115-1.504-1.804-3.388-1.826-5.548-.082-8.273 9.973-12.213 15.405-7.29l1.522-.926C11.697-2.629.324 2.387.34 11.956Z" style="stroke-width:1.50793" />
</svg>
