<svg xmlns="http://www.w3.org/2000/svg" fill="currentColor" viewBox="0 0 24 24">
	<path d="M8.13 23.706q-2.144 0-3.67-1.526-1.528-1.526-1.528-3.67V7.895q-1.137-.422-1.867-1.412-.731-.99-.731-2.257 0-1.623 1.137-2.76T4.23.33t2.762 1.136 1.137 2.76q0 1.266-.731 2.257-.731.99-1.868 1.412V18.51q0 1.071.763 1.834.764.763 1.836.763t1.835-.763q.763-.763.763-1.834V5.524q0-2.143 1.527-3.669t3.67-1.526q2.145 0 3.672 1.526 1.526 1.526 1.526 3.669V16.14q1.137.422 1.868 1.412t.731 2.257q0 1.623-1.137 2.76t-2.761 1.136-2.761-1.137-1.137-2.76q0-1.266.73-2.272.732-1.007 1.869-1.396V5.524q0-1.072-.764-1.835-.763-.763-1.835-.763t-1.835.763q-.764.763-.764 1.835V18.51q0 2.143-1.527 3.669t-3.67 1.526M4.232 5.524q.552 0 .926-.374.373-.373.373-.925T5.158 3.3t-.926-.374-.926.374-.374.925.374.925.926.374m15.592 15.584q.552 0 .926-.373.373-.374.373-.925 0-.552-.373-.926-.374-.373-.926-.373t-.926.373-.373.926.373.925.926.373m0-1.298" style="stroke-width:.0324755" />
</svg>
