<svg xmlns="http://www.w3.org/2000/svg" fill="currentColor" viewBox="0 0 24 24">
	<path d="M9.068 12.188c-.281-1.075-3.113-4.405-3.113-4.405l-2.511-.379 2.933 3.823-5.76.246v1.508l5.767.202-2.997 4.163 2.669-.629s2.707-3.443 3.012-4.529" style="stroke-width:1.50793" />
	<path fill="none" d="M.01.054h24v24h-24Z" />
	<path d="M12.94 8.38c3.218 0 4.828 3.89 2.554 6.164-2.275 2.275-6.164.664-6.164-2.553a3.61 3.61 0 0 1 3.61-3.61" style="stroke-width:2.40717" />
	<path d="M23.672 12.098c.014-9.658-11.54-14.637-18.55-7.995l2.067.301c3.676-3.708 10.015-2.206 13.17 2.05 1.115 1.504 1.805 3.388 1.826 5.548.082 8.273-9.973 12.213-15.404 7.29l-1.523.926c7.055 6.465 18.429 1.449 18.412-8.12z" style="stroke-width:1.50793" />
</svg>
