<svg xmlns="http://www.w3.org/2000/svg" fill="currentColor" version="1.0" viewBox="0 0 100 100"><path d="M4.663 6.288C2.485 8.365 2.37 9.895 2.37 50c0 40.105.114 41.635 2.292 43.712 2.177 2.076 3.781 2.185 45.837 2.185 42.056 0 43.66-.11 45.837-2.185 2.178-2.077 2.292-3.607 2.292-36.39V23.227L88.545 13.61l-9.97-9.507H42.708c-34.264 0-35.868.11-38.045 2.185zM75.71 22.462c0 9.398-.459 14.425-1.376 15.299-1.948 1.858-50.306 1.858-52.254 0-.917-.874-1.375-5.901-1.375-15.3V8.475H75.71zm3.208 33.22c.917.875 1.375 6.557 1.375 18.578v17.266H20.706V74.26c0-12.02.458-17.703 1.375-18.578 1.948-1.857 54.89-1.857 56.838 0zM13.83 87.155c0 1.42-.802 2.185-2.292 2.185-1.49 0-2.292-.765-2.292-2.185s.802-2.186 2.292-2.186c1.49 0 2.292.765 2.292 2.186zm77.924 0c0 1.42-.802 2.185-2.292 2.185-1.49 0-2.292-.765-2.292-2.185s.802-2.186 2.292-2.186c1.49 0 2.292.765 2.292 2.186z"/><path d="M57.376 23.773v8.742h9.167V15.031h-9.167z"/></svg>