<?xml version="1.0" encoding="UTF-8" standalone="no"?>
<svg
   fill="currentColor"
   viewBox="0 -960 24 24"
   version="1.1"
   id="svg1"
   sodipodi:docname="search.svg"
   inkscape:version="1.3.2 (091e20e, 2023-11-25)"
   xmlns:inkscape="http://www.inkscape.org/namespaces/inkscape"
   xmlns:sodipodi="http://sodipodi.sourceforge.net/DTD/sodipodi-0.dtd"
   xmlns="http://www.w3.org/2000/svg"
   xmlns:svg="http://www.w3.org/2000/svg">
  <defs
     id="defs1" />
  <sodipodi:namedview
     id="namedview1"
     pagecolor="#ffffff"
     bordercolor="#000000"
     borderopacity="0.25"
     inkscape:showpageshadow="2"
     inkscape:pageopacity="0.0"
     inkscape:pagecheckerboard="0"
     inkscape:deskcolor="#d1d1d1"
     inkscape:zoom="10.084457"
     inkscape:cx="-7.6850943"
     inkscape:cy="7.5859318"
     inkscape:window-width="1312"
     inkscape:window-height="592"
     inkscape:window-x="0"
     inkscape:window-y="0"
     inkscape:window-maximized="0"
     inkscape:current-layer="svg1" />
  <path
     d="m 21.435729,-936.722 c -2.374408,-0.52412 -6.786019,-6.20585 -6.786019,-6.20585 -0.698638,0.56549 -1.444511,0.84271 -2.351315,1.17276 -0.907517,0.33005 -1.873492,0.49508 -2.8979244,0.49508 -2.5357728,0 -4.6815912,-0.88976 -6.4374553,-2.66929 -1.7572898,-1.77952 -2.63593465,-3.95373 -2.63593465,-6.52263 0,-2.56889 0.87828835,-4.74347 2.63486535,-6.52371 1.756577,-1.78024 3.9031082,-2.67001 6.4395939,-2.66928 2.5357731,0 4.6819481,0.88976 6.4385251,2.66928 1.756577,1.77953 2.635221,3.9541 2.635935,6.52371 0,1.03709 -0.162897,2.01497 -0.488691,2.93362 -0.325794,0.91865 -0.597241,1.61816 -1.155439,2.32592 0,0 5.959924,4.16549 6.557552,6.4901 0.597626,2.3246 0.420713,2.50441 -1.953693,1.98029 z m -12.0341891,-7.6681 c 1.7451711,0 3.2508691,-0.48894 4.4720611,-1.72608 1.221905,-1.23787 1.50879,-2.5685 1.50879,-4.33575 0,-1.76796 -0.610952,-2.96933 -1.832857,-4.20719 -1.221905,-1.23787 -2.403536,-1.85645 -4.1479941,-1.85572 -1.7444576,7.3e-4 -2.9264457,0.6193 -4.1490631,1.85572 -1.2226175,1.23641 -1.8332133,2.43779 -1.8317875,4.20719 0.00142,1.76941 0.6120216,2.97006 1.8317875,4.20504 1.2197659,1.23497 2.4017538,1.8539 4.1490631,1.85679"
     style="stroke-width:1.07631"
     id="path1"
     sodipodi:nodetypes="zccscsscscsczzcsssssssc" />
</svg>
