<svg xmlns="http://www.w3.org/2000/svg" fill="none" viewBox="0 0 20 20"><path stroke="currentColor" stroke-linecap="round" stroke-linejoin="round" stroke-width="1.25" d="M18.38 3.255h-1.92m-14.83 0h11.08"/><path stroke="currentColor" stroke-linecap="round" stroke-linejoin="round" stroke-width="1.25" d="M13.96 16.755a1.875 1.875 0 1 1-3.75 0 1.875 1.875 0 0 1 3.75 0z" clip-rule="evenodd"/><path stroke="currentColor" stroke-linecap="round" stroke-linejoin="round" stroke-width="1.25" d="M1.63 10.002h3.58m13.17 0H8.96"/><path stroke="currentColor" stroke-linecap="round" stroke-linejoin="round" stroke-width="1.25" d="M8.96 10a1.875 1.875 0 1 1-3.75 0 1.875 1.875 0 0 1 3.75 0z" clip-rule="evenodd"/><path stroke="currentColor" stroke-linecap="round" stroke-linejoin="round" stroke-width="1.25" d="M1.63 16.75h8.58m8.17 0h-4.42"/><path stroke="currentColor" stroke-linecap="round" stroke-linejoin="round" stroke-width="1.25" d="M16.46 3.255a1.875 1.875 0 1 0-3.75 0 1.875 1.875 0 0 0 3.75 0z" clip-rule="evenodd"/></svg>