<svg version="1.0" xmlns="http://www.w3.org/2000/svg" viewBox="0 0 512 512" fill="currentColor">
	<path d="M124.3 33.5c-40.7 7.4-71.9 38.9-78.3 79-.5 3.3-3.2 66.3-6 140-5.5 145.6-5.5 143.5-.4 159.8 4.9 15.4 12.3 27.6 23.8 39.2 12 12.1 27.4 21 44.6 25.7l8.5 2.3H257c134.3 0 140.8-.1 147.4-1.9 17.5-4.7 32.2-13.4 44.7-26.3 16.3-16.8 25.4-35.8 27.4-56.9.8-8.2-9.1-273.2-10.5-282.1-5.5-34.4-30.2-63.6-63.5-75-15.8-5.4-13.8-5.3-147.4-5.2-96.8.1-125.2.4-130.8 1.4zm268.2 33.4c9.2 3.1 12.8 4.9 20.2 10.6 12.5 9.3 21.1 24.7 23.3 41.6 1.1 8.4 10 242.3 10 261.4 0 11.8-1.8 20-6.4 29.8-6.6 14.2-17.1 25.2-30.3 31.7-12.5 6.2-7.2 6-152.1 6-142.6 0-138.7.1-150.9-5.1-19.7-8.4-34.8-27.7-38.2-48.9-1.5-9.3 8.2-271.3 10.4-280.8 4.5-19.3 19-36.4 37.4-44.1 12.1-5.1 8.8-5 143.6-4.8l126 .2 7 2.4z" />
	<path d="M152.2 98c-8 3.6-9.8 12.5-6.7 32 7.8 48 44.5 84.7 92.5 92.5 22.5 3.6 48.6-.3 68.2-10.1 32.2-16.1 54.9-47.5 60.3-83.1 3-19.6 1.2-27.7-6.7-31.3-5.4-2.5-10.2-2.5-15.6 0-5.6 2.5-7.8 7.4-8.6 19.5-2.3 34.3-24.9 62.2-58.3 71.7-10.3 3-31.3 3.2-41.3.4-34.2-9.4-57.3-37.4-59.6-72.1-.8-12.1-3-17-8.6-19.5-5.4-2.5-10.2-2.5-15.6 0z" />
</svg>
