<svg xmlns="http://www.w3.org/2000/svg" fill="currentColor" version="1.0" viewBox="0 0 512 512"><path d="M109.378 8.35c-45.305 8.237-80.035 43.301-87.16 87.938-.556 3.673-3.561 73.801-6.678 155.84-6.122 162.074-6.122 159.736-.445 177.88 5.454 17.143 13.691 30.723 26.493 43.636 13.357 13.469 30.5 23.376 49.646 28.608l9.462 2.56h156.396c149.495 0 156.73-.112 164.078-2.115 19.48-5.232 35.843-14.916 49.757-29.276 18.144-18.7 28.274-39.85 30.5-63.338.89-9.128-10.13-304.11-11.688-314.018-6.122-38.292-33.617-70.796-70.684-83.485-17.588-6.011-15.362-5.9-164.078-5.789-107.752.112-139.365.446-145.599 1.559zm298.545 37.179c10.241 3.45 14.248 5.454 22.486 11.799 13.914 10.352 23.487 27.495 25.936 46.307 1.224 9.35 11.131 269.715 11.131 290.976 0 13.135-2.003 22.262-7.124 33.171-7.346 15.807-19.034 28.051-33.728 35.287-13.914 6.901-8.015 6.679-169.31 6.679-158.733 0-154.392.111-167.973-5.677-21.928-9.35-38.737-30.834-42.522-54.433-1.67-10.352 9.128-301.996 11.577-312.57 5.01-21.484 21.15-40.52 41.632-49.09 13.469-5.677 9.795-5.566 159.847-5.343l140.256.222z"/><path d="M140.435 80.147c-8.905 4.008-10.909 13.915-7.458 35.621 8.682 53.431 49.535 94.283 102.966 102.966 25.045 4.007 54.098-.334 75.916-11.243 35.843-17.922 61.112-52.874 67.122-92.502 3.34-21.818 1.336-30.834-7.458-34.842-6.01-2.782-11.354-2.782-17.365 0-6.233 2.783-8.682 8.238-9.573 21.707-2.56 38.18-27.717 69.237-64.896 79.812-11.465 3.34-34.841 3.562-45.973.445-38.07-10.463-63.783-41.631-66.343-80.257-.89-13.47-3.34-18.924-9.573-21.707-6.011-2.782-11.354-2.782-17.365 0z"/></svg>