<svg xmlns="http://www.w3.org/2000/svg" fill="currentColor" fill-rule="evenodd" stroke-linejoin="round" stroke-miterlimit="1.414" clip-rule="evenodd" viewBox="0 0 24 24"><path d="M18.384 21.78a1.19 1.19 0 0 0 1.107.144 1.16 1.16 0 0 0 .724-.84c.87-4.084 2.977-14.42 3.768-18.136a.78.78 0 0 0-.26-.758.8.8 0 0 0-.797-.14C18.733 3.602 5.82 8.447.542 10.4a.83.83 0 0 0-.542.8c.012.353.25.66.593.763 2.367.708 5.474 1.693 5.474 1.693s1.452 4.385 2.21 6.615c.094.28.313.5.602.576a.87.87 0 0 0 .811-.207l3.096-2.923s3.572 2.62 5.598 4.062zm-11.01-8.678 1.68 5.538.372-3.507 10.185-9.186a.277.277 0 0 0 .033-.377.284.284 0 0 0-.376-.064z"/></svg>