<svg xmlns="http://www.w3.org/2000/svg" viewBox="0 0 24 24" fill="currentColor">
	<path d="M14.788.508c-1.111.269-2.742 1.219-3.53 2.079-.395.43-.986 1.326-1.29 1.989-.52 1.111-.574 1.344-.574 3.01V9.38l-4.086 3.459C.612 16.816.45 17.03.433 19.128c0 1.147.072 1.47.502 2.187 1.272 2.168 3.925 2.867 6.075 1.612.574-.34 1.631-1.433 3.405-3.53 1.416-1.685 2.921-3.495 3.37-4.014l.806-.95 1.075.107c2.903.305 5.843-1.326 7.169-3.996.77-1.506.932-3.1.537-4.857-.179-.788-.376-1.434-.43-1.434s-.752.646-1.559 1.452c-1.541 1.523-2.186 1.846-3.226 1.56-.663-.162-1.29-.807-1.487-1.506-.269-1.004.054-1.667 1.613-3.226.824-.824 1.451-1.523 1.398-1.56-.036-.053-.61-.214-1.255-.375-1.272-.305-2.545-.341-3.638-.09m1.147 1.756c0 .108-.09.233-.18.287-.447.287-.913 1.577-.913 2.599-.018 2.347 1.613 3.978 3.96 3.96 1.04 0 1.9-.287 2.563-.878.287-.25.305-.233.305.161 0 .681-.789 2.169-1.541 2.886-1.362 1.29-3.334 1.81-5.09 1.326-.896-.233-1.004-.233-1.272.036-.162.16-1.846 2.132-3.728 4.39-1.9 2.24-3.638 4.194-3.871 4.355-1.595 1.04-4.032-.269-4.032-2.186 0-1.273.25-1.56 4.695-5.305 2.366-2.007 4.409-3.727 4.552-3.835.197-.161.197-.323-.018-1.057-.34-1.094-.34-1.936 0-3.083.502-1.684 1.667-2.903 3.405-3.495 1.058-.358 1.165-.376 1.165-.16" style="stroke-width:.179213" />
</svg>
