<svg xmlns="http://www.w3.org/2000/svg" viewBox="0 0 24 24">
	<g transform="matrix(.13313 0 0 -.13313 -.035 223.653)">
		<path fill="#000" d="M60.026 1675.113c-21.216-3.065-23.3-5.886-25.508-34.705-1.962-26.121-1.962-75.911 0-102.032 2.207-29.187 4.047-31.517 27.225-34.829 24.772-3.433 64.383-1.226 73.458 4.047 6.99 4.047 8.339 8.462 10.056 30.782 1.962 26.12 2.085 75.91.123 102.032-2.208 29.187-4.047 31.517-27.225 34.828-15.943 2.207-42.31 2.207-58.13-.123m38.752-9.688c6.132-2.575 8.83-5.15 11.528-11.037 4.047-8.707 1.84-20.848-4.537-26.612-6.378-5.64-16.801-7.358-24.65-4.047-6.132 2.576-8.83 5.151-11.528 11.038-3.801 8.216-2.33 19.008 3.557 25.63 5.518 6.132 17.291 8.462 25.63 5.028m0-55.185c6.132-2.576 8.83-5.151 11.528-11.038 4.047-8.707 1.84-20.847-4.537-26.611-6.378-5.641-16.801-7.358-24.65-4.047-6.132 2.575-8.83 5.15-11.528 11.037-3.801 8.217-2.33 19.008 3.557 25.63 5.518 6.132 17.291 8.462 25.63 5.029m0-55.186c6.132-2.575 8.83-5.15 11.528-11.037 4.047-8.707 1.84-20.848-4.537-26.612-6.378-5.641-16.801-7.358-24.65-4.047-6.132 2.576-8.83 5.15-11.528 11.037-3.801 8.217-2.33 19.009 3.557 25.631 5.518 6.132 17.291 8.462 25.63 5.028" />
		<circle cx="89.992" cy="-1644.533" r="23.827" style="fill:#e02020;fill-opacity:.751445;stroke-width:.976535;stroke-linecap:round" transform="scale(1 -1)" />
		<circle cx="90.023" cy="-1589.156" r="23.827" style="fill:#e0dd20;fill-opacity:.751445;stroke-width:.976535;stroke-linecap:round" transform="scale(1 -1)" />
		<circle cx="89.745" cy="-1534.207" r="23.827" style="fill:#20e020;fill-opacity:.751445;stroke-width:.976535;stroke-linecap:round" transform="scale(1 -1)" />
	</g>
</svg>
