<svg xmlns="http://www.w3.org/2000/svg" fill="currentColor" viewBox="0 0 24 24"><path fill="none" d="M0 0h48v48H0z"/><path d="M13.184.4v3.523c3.941.563 6.975 3.946 6.975 8.043 0 1.04-.204 2.035-.558 2.947l3.022 1.784a11.6 11.6 0 0 0 1.023-4.73C23.646 5.938 19.06.986 13.184.4m-1.162 19.703a8.14 8.14 0 0 1-8.137-8.137c0-4.097 3.034-7.48 6.975-8.043V.4A11.617 11.617 0 0 0 .398 11.966c0 6.423 5.196 11.625 11.618 11.625 3.848 0 7.248-1.878 9.363-4.755l-3.016-1.778a8.1 8.1 0 0 1-6.341 3.045" style="fill-opacity:1;stroke:none;stroke-width:.581325;stroke-dasharray:none;stroke-opacity:1"/></svg>